# xmcd
#
# Track frame offsets:
#	150
#	16000
#	37545
#	57573
#	73081
#	90603
#	110299
#	133844
#	151314
#	165272
#	184032
#	201408
#
# Disc length: 2901 seconds
#
# Revision: 1
# Processed by: cddbd v1.5.2PL0 Copyright (c) Steve Scherf et al.
# Submitted via: audiograbber 1.83.01
#
DISCID=940b530c
DTITLE=Dave Hunt - Whiskey and Demons
DYEAR=2015
DGENRE=Blues
TTITLE0=Little Red
TTITLE1=Mississippi Blues
TTITLE2=Whiskey and Demons
TTITLE3=Roadhouse Rosie
TTITLE4=Broken Promises
TTITLE5=Remind Me
TTITLE6=Sold Me Down the River
TTITLE7=Alabama Train
TTITLE8=Downhill Shuffle
TTITLE9=My Friends
TTITLE10=Honeysuckle Rose
TTITLE11=Words Unsaid
EXTD=
EXTT0=
EXTT1=
EXTT2=
EXTT3=
EXTT4=
EXTT5=
EXTT6=
EXTT7=
EXTT8=
EXTT9=
EXTT10=
EXTT11=
PLAYORDER=
